/* XPM */
static char *dcf1338ab37b42c0eb814f65beb379bf1kqGxGJRpLcKpaQ1[] = {
/* columns rows colors chars-per-pixel */
"32 32 6 1 ",
"  c None",
". c #481330",
"X c #5F1748",
"o c #CB2828",
"O c #881252",
"+ c #961069",
/* pixels */
"                                ",
"                                ",
"                                ",
"                                ",
"                                ",
"                                ",
"                                ",
"                                ",
"      .                    X    ",
"      XXX                 .X    ",
"     .XXXX    XX     .X   XXX   ",
"     XXX.XXX ..XX   .XXX .XXX   ",
"    .XXXO.XXX  .XX..XX   XXXXX  ",
"    XXXX+O.XXX .XXXXXX. .XXXXX  ",
"    X.XX++O..X.XXXoXXoX XX.XXX  ",
"   .X.XXX++O...XXXXXXXX.XXO.X.X ",
"   XXO.XX++O...XXXXXXXXXXXO..O. ",
"  .XXO..X+O  ...XXXXXXXX.+O.O+O.",
"  .X++O.X+    ....XXXX. ++O.++ X",
"  XX++O.X      .......    OX+   ",
" .X+  O.        .....      X    ",
" XX    .                        ",
".X                              ",
"X                               ",
"                                ",
"                                ",
"                                ",
"                                ",
"                                ",
"                                ",
"                                ",
"                                "
};
