/* XPM */
static char *_2787717670a4838b6a9f224a854200eX9gD7i05rC5Pkr9Z[] = {
/* columns rows colors chars-per-pixel */
"32 32 12 1 ",
"  c None",
". c #0F663B",
"X c #8A2450",
"o c #AD284B",
"O c #CC3542",
"+ c #E65C5C",
"@ c #208030",
"# c #47A632",
"$ c #F29179",
"% c #8DC746",
"& c #CEEB5E",
"* c #F7C088",
/* pixels */
"                                ",
"                                ",
"           #&&                  ",
"         #%%#%&                 ",
"        #%#@#@%&                ",
"       #&#@#%@ #%               ",
"      #&%@%%#.  #%              ",
"      #%#%&#@    #              ",
"     #&#%&#@.    @%             ",
"     #%#&%#.@     #             ",
"    #%#&%#@ #     @%            ",
"    #%@%#@  %      #            ",
"    #@%#@   %    oo@%oo         ",
"    @%#.    %   oOO@#OOoo       ",
"    @#.     #  oO++.@Xo+OX      ",
"    @.   ooo@ooo++oXXoo$+oX     ",
"       oo+OO#@+OoXOooO$+OoO     ",
"      oO+OoX@.O++OXOO++OoooX    ",
"      o+$+ooXXoO++X++OOooXOX    ",
"     oO$*$Ooooo+$+OXoOoooXOX    ",
"     XoO$$+OOO+$+OoXooooXXOX    ",
"     XoXO+++++++OooXooXXXOX     ",
"     XoXoOOOOOOooXoXXXXXoOX     ",
"     XoXXooOOoooXoXXXXXOOX      ",
"      XoXXooooXXXoXooOOXX       ",
"      XOXXXXXXXXoX XXXX         ",
"       XOOXXXXOOX               ",
"        XXOOOOXX                ",
"          XXXX                  ",
"                                ",
"                                ",
"                                "
};
