/* XPM */
static char *bee621c0c2ab44b7ba68424fdfebb8d477It1d9rrMP2SD7N[] = {
/* columns rows colors chars-per-pixel */
"32 32 30 1 ",
"  c None",
". c #006108",
"X c #39335E",
"o c #444A4B",
"O c #7A6843",
"+ c #5D736B",
"@ c #606060",
"# c #616262",
"$ c gray47",
"% c #74874C",
"& c #71857F",
"* c #9DBE65",
"= c #CA9E73",
"- c #4B4790",
"; c #5D71CE",
": c #008291",
"> c #00A690",
", c #79A4FF",
"< c #808080",
"1 c #959595",
"2 c gray66",
"3 c gray73",
"4 c #DDBD9C",
"5 c #BEE495",
"6 c #EEDAB3",
"7 c gainsboro",
"8 c #E0F5CF",
"9 c #FDF0C5",
"0 c #FFEBE1",
"q c white",
/* pixels */
"             %%%%%%%            ",
"           %%*******%%          ",
"         %%*585555585*%%        ",
"        %*5585555555855*%       ",
"       %*558885555588855*%      ",
"      %*55558888888885555*%     ",
"      %55*5555555555555*55%     ",
"     %*5*5555*55*55*5555*5*%    ",
"    OO**55*55*5*6*5*55*55**OO   ",
"   O46=O55*5*6*666*6*5*55O=64O  ",
"    O464*5**699999996**5*464O   ",
"     O=4**6699999999966**4=O    ",
"      O=*469999999999964*=O     ",
"       O*=6:::99999:::6=*O      ",
"        O=6q.0999990.q6=O       ",
"         O4q>>99999>>q4O        ",
"         $O46999999964O$        ",
"        $3XO=4666664=OX3$       ",
"       $7q-;OOOOOOOOO;-q7$      ",
"      $3qq;,,-36663-,,;qq3$     ",
"      $qq7-,,,;373;,,,-7qq$     ",
"     $3q73X;,,,-X-,,,;X37q3$    ",
"     O=73$X;,,,;-;,,,;X$37=O    ",
"     O99=Oo-;,;-X-;,;-oO=99O    ",
"     O96O o<---<<<---<o O69O    ",
"      OO  o<2<@@@@@<2<o  OO     ",
"          o@21@ooo@12@o         ",
"          o@1<@o o@<1@o         ",
"           o+&@o o@&+o          ",
"           o&&+o o+&&o          ",
"            ooo   ooo           ",
"                                "
};
