/* XPM */
static char *c0a1e95f268d494da92fb01ae67797d4UnKv6LwtYiRhhWuY[] = {
/* columns rows colors chars-per-pixel */
"32 32 10 1 ",
"  c None",
". c #0F1127",
"X c #121228",
"o c #151835",
"O c #863030",
"+ c #957635",
"@ c #9A4040",
"# c #A88B45",
"$ c #D7CE76",
"% c #F2F39B",
/* pixels */
"                                ",
"                                ",
"    %%                          ",
"   $%%$                         ",
"  #$$$$#                        ",
"  ++$###                        ",
"  +++##+                        ",
"   ++++  @@@@@@@                ",
"   ... @@@@@@@@@@  @@@          ",
"   oo.O@@@@@@@@@@@@@@@@@  @     ",
"   oo.O@@@@@@@@@@@@@@@@@ @@     ",
"   oo.O@@@@@@@@@@@@@@@@@@@@     ",
"   oo.O@@@@@@@@@@@@@@@@@@@@     ",
"   oo.O@@@@@@@@@@@@@@@@@@@@@    ",
"   oooO@@@@@@@@@@@@@@@@@@@@@    ",
"   o.oO@@@@@@@@@@@@@@@@@@@@@    ",
"   o.XO@@@@@@@@@@@@@@@@@@@@@    ",
"   o.oO@@@@@@@@@@@@@@@@@@@@@    ",
"   o.oO@@@@@@@O@@@@@@@@@@@@@@   ",
"   o.oO@@@@@@@O@@@@@@@@@@@@@@   ",
"   o.oO@@@@@@@O@@@@@@@@@@@@@@   ",
"   o.oO@@OOOOOO@@@@@@@@@@@@@@@  ",
"   o.oOO      O@@@@@@@@@@@@@@@  ",
"   o.oO        OOOOOOOOOOOO@@@O ",
"   o.o                 OOOOOOO  ",
"   o.o                          ",
"   o.o                          ",
"   o.o                          ",
"   o.o                          ",
"   o.o                          ",
"   o.o                          ",
"   o.o                          "
};
