/* XPM */
static char *_8a0dd66ddff47729614798481d2500ei8fyCO0S2lpzPgTf_3[] = {
/* columns rows colors chars-per-pixel */
"32 32 8 1 ",
"  c None",
". c red",
"X c #FF9900",
"o c #CBFF00",
"O c #EF3A0C",
"+ c black",
"@ c black",
"# c black",
/* pixels */
"                                ",
"                                ",
"                                ",
"                                ",
"                                ",
"                                ",
"                                ",
"                .               ",
"                 .              ",
"                                ",
"             .    .             ",
"           ..   .. .            ",
"          ...   .. ..           ",
"          ...  .... .           ",
"           .  ..... ..          ",
"          .  ...X.....          ",
"         .. ...XXX.. .          ",
"           ...XXXX....          ",
"          ...XXXXXX..           ",
"         ...XXXXXXX....         ",
"         ..XXXXXXXX.....        ",
"       ....XXXXXXXXXXX...       ",
"      ....XXXXXXXXXXXX...       ",
"      ...XXXXXXooXXXXXX...      ",
"      ..XXXXXXXoooXXXXXX..      ",
"     ...XXXXXXooooXXXXXX...     ",
"     ...XXXXXXooooXXXXXX...     ",
"     ...XXXXXooooooXXXXX...     ",
"      ..XXXXXooooooXXXXX..      ",
"      ..XXXXooooooooXXXX..      ",
"      ...XXXooooooooXXX..       ",
"       ...XXooooooooXX..        "
};
