/* XPM */
static char *_1be5a37affb4961808cf48768a70cad8MoltdFmdU0dVr9G[] = {
/* columns rows colors chars-per-pixel */
"32 32 4 1 ",
"  c None",
". c red",
"X c #FF9900",
"o c #CBFF00",
/* pixels */
"                                ",
"                                ",
"                                ",
"                                ",
"                                ",
"                .               ",
"                .               ",
"               . .              ",
"              .   .             ",
"                                ",
"             .    .             ",
"            . ..   ..           ",
"           .. ..   ...          ",
"           . ....   ..          ",
"          .. .....  .           ",
"          ....X....  .          ",
"          . ..XX.... ..         ",
"          ...XXXXX...           ",
"           ..XXXXX....          ",
"         ...XXXXXXX....         ",
"        ....XXXXXXXX...         ",
"       ...XXXXXXXXXXX....       ",
"       ..XXXXXXXXXXXX.....      ",
"      ..XXXXXXXooXXXXX....      ",
"      ..XXXXXXoooXXXXXX...      ",
"     ...XXXXXXooooXXXXX....     ",
"     ...XXXXXXooooXXXXX....     ",
"     ...XXXXXooooooXXXXX...     ",
"      ...XXXXooooooXXXXX..      ",
"      ...XXXooooooooXXX...      ",
"       ...XXooooooooXXX...      ",
"        ..XXooooooooXXX..       "
};
