/* XPM */
static char *_5d628fd5a7849d1ef267f8dbd0d7afawrSuPptGjuJCFsrY[] = {
/* columns rows colors chars-per-pixel */
"30 31 28 1 ",
"  c None",
". c #006108",
"X c #39335E",
"o c #444A4B",
"O c #7A6843",
"+ c #5D736B",
"@ c #606060",
"# c #616262",
"$ c gray47",
"% c #74874C",
"& c #71857F",
"* c #9DBE65",
"= c #CA9E73",
"- c #4B4790",
"; c #5D71CE",
": c #008291",
"> c #00A690",
", c #79A4FF",
"< c #808080",
"1 c gray73",
"2 c #DDBD9C",
"3 c #BEE495",
"4 c #EEDAB3",
"5 c gainsboro",
"6 c #E0F5CF",
"7 c #FDF0C5",
"8 c #FFEBE1",
"9 c white",
/* pixels */
"                              ",
"           %%%%%%%            ",
"         %%*******%%          ",
"       %%*363333363*%%        ",
"      %*3363333333633*%       ",
"     %*336663333366633*%      ",
"    %*33336666666663333*%     ",
"    %33*3*333333*3333333%     ",
"   %*3**33*33*333*333333*%    ",
"   %*3*2*3*33*333*333333*%    ",
"   %***44*4*3**333*333*3*%    ",
"    %*O44477*7*333*OO3*3*%    ",
"     %O44777777*3O=77O***%    ",
"      O477777773O4724O***%    ",
"      O477:::77347=4O3***%    ",
"      O2778.97737=4O****%     ",
"      O=47>>977742O*****%     ",
"       O2477777422*****%      ",
"        O=2244422=%***%       ",
"         OOOOOOOOO%*%%        ",
"         O21;;,,;;X%          ",
"         o1;,,,;51$           ",
"         X-,,,$9951           ",
"         X;,,$99951           ",
"         X-;o77951$           ",
"         o@-o7741$X           ",
"         oo@o242$@o           ",
"        o@@ooooo<@o           ",
"        o@@@oo@<&&+o          ",
"         ooo  o&&&+o          ",
"               oooo           "
};
