/* XPM */
static char *_bfd500ea0eb4d54bc0d29cab03584afaAiLE4W2PFqucCeY[] = {
/* columns rows colors chars-per-pixel */
"30 31 30 1 ",
"  c None",
". c #006108",
"X c #39335E",
"o c #444A4B",
"O c #7A6843",
"+ c #5D736B",
"@ c #606060",
"# c #616262",
"$ c gray47",
"% c #74874C",
"& c #71857F",
"* c #9DBE65",
"= c #CA9E73",
"- c #4B4790",
"; c #5D71CE",
": c #008291",
"> c #00A690",
", c #79A4FF",
"< c #808080",
"1 c #959595",
"2 c gray66",
"3 c gray73",
"4 c #DDBD9C",
"5 c #BEE495",
"6 c #EEDAB3",
"7 c gainsboro",
"8 c #E0F5CF",
"9 c #FDF0C5",
"0 c #FFEBE1",
"q c white",
/* pixels */
"                              ",
"            %%%%%%%           ",
"          %%*******%%         ",
"        %%*585555585*%%       ",
"       %*5585555555855*%      ",
"      %*558885555588855*%     ",
"     %*55558888888885555*%    ",
"     %55*5*555555*5555555%    ",
"    %*5**55*55*555*555555*%   ",
"    %*5*4*5*55*555*555555*%   ",
"    %***66*6*5**555*555*5*%   ",
"     %*O66699*9*555*OO5*5*%   ",
"      %O66999999*5O=99O***%   ",
"       O699999995O6946O***%   ",
"       O699:::99569=6O5***%   ",
"       O4990.q9959=6O****%    ",
"       O=69>>q99964O*****%    ",
"        O4699999644*****%     ",
"         O=4466644=%***%      ",
"          OOOOOOOOO%*%%       ",
"          O43;;,,;3$%         ",
"          o3;,,,;7q73         ",
"          X-,,,,-qqqq3        ",
"          X;,,,,X$7qq7$       ",
"          X-;,,,;;$7q94O      ",
"          o@------$4994O      ",
"          o@221<@o@o44O       ",
"          o121<@o@@@oO        ",
"         o&&+1@o o@#o         ",
"         o&&&@o  ooo          ",
"          oooo                "
};
