/* XPM */
static char *a6d3fab1e8204ca9c11ce5f6cb557715Xxab6WyAbc2az2KB[] = {
/* columns rows colors chars-per-pixel */
"31 34 9 1 ",
"  c None",
". c black",
"X c #1C2A24",
"o c #223A30",
"O c #7D211D",
"+ c #3A5941",
"@ c #A52D27",
"# c #65845C",
"$ c #ACC2C3",
/* pixels */
"                               ",
"        ..  ...... ..          ",
"        .#..######.#.          ",
"        .+####+++++..          ",
"         .+++++#++++.          ",
"          ..oo+@+#+#.          ",
"          .ooooOo@o@.          ",
"           .oooooOoO.          ",
"           ..XXXoooo.          ",
"      ...  .X..XXXXoX...       ",
"      .oo. .XX..$$.$$.o.       ",
"      .ooo..ooX.$.o.$.o.       ",
"      .ooo+++++o.o+o.oo.       ",
"       .o+++++++o+++oo.        ",
"       .+++++++++++++++.       ",
"      .+++o+++++++++o++.       ",
"      .++o.+++++++++.+++.      ",
"     .++o..o+++++++o.o++.      ",
"     .++o..oo++++++o.o++.      ",
"     .++o..ooooo+ooo.o++.      ",
"    .++o.  .....+... .o++.     ",
"   .+++o.  .ooo++oo. .o+++.    ",
"   .++o.   .o++++++.  .o++.    ",
"   .+oo.   .ooo++oo.  .oo+.    ",
"    ...    .o++++++.   ...     ",
"           .ooo++oo.           ",
"          .o+++++++o.          ",
"          .o++ooo+++.          ",
"         .o++o...o++o.         ",
"         .o+o.   .o++.         ",
"        .ooo.     .ooo.        ",
"        .ooo.     .ooo.        ",
"        .ooo.     .ooo.        ",
"        .....     .....        "
};
