/* XPM */
static char *_7ce6790d3674cebe8754ef04172597bKqo8upsK6vt8hIfX[] = {
/* columns rows colors chars-per-pixel */
"30 36 9 1 ",
"  c None",
". c black",
"X c #1C2A24",
"o c #223A30",
"O c #7D211D",
"+ c #3A5941",
"@ c #A52D27",
"# c #65845C",
"$ c #ACC2C3",
/* pixels */
"                              ",
"         .. ......  ..        ",
"         .#.######..#.        ",
"         ..+++++####+.        ",
"         .++++#+++++.         ",
"         .#+#+@+oo..          ",
"         .@o@oOoooo.          ",
"         .OoOooooo.           ",
"         .ooooXXX..           ",
"      ...XoXXXX..X.  ...      ",
"      .o.$$.$$..XX. .oo.      ",
"      .o.$.o.$.Xoo..ooo.      ",
"      .oo.o+o.o+++++ooo.      ",
"       .oo+++o+++++++o.       ",
"      .+++++++++++++++.       ",
"      .++o+++++++++o+++.      ",
"     .+++.+++++++++.o++.      ",
"     .++o.o+++++++o..o++.     ",
"     .++o.o++++++oo..o++.     ",
"     .++o.ooo+ooooo..o++.     ",
"    .++o. ...+.....  .o++.    ",
"   .+++o. .oo++ooo.  .o+++.   ",
"   .++o.  .++++++o.   .o++.   ",
"   .+oo.  .oo++ooo.   .oo+.   ",
"    ...   .++++++o.    ...    ",
"          .oo++ooo.           ",
"         .o+++++++o.          ",
"         .+++ooo++o.          ",
"        .o++o...o++o.         ",
"        .++o.   .o+o.         ",
"       .ooo.     .ooo.        ",
"       .ooo.     .ooo.        ",
"       .ooo.     .ooo.        ",
"       .....     .....        ",
"                              ",
"                              "
};
