/* XPM */
static char *fdfcf49ccd48482abaf48b5c55b0e050sOLA8WDQ9Ig8QBMt[] = {
/* columns rows colors chars-per-pixel */
"32 33 6 1 ",
"  c None",
". c black",
"X c #1C2A24",
"o c #223A30",
"O c #3A5941",
"+ c #65845C",
/* pixels */
"       ..  ........  ..         ",
"       .+..++++++++..+.         ",
"       .+++.++++OO.++O.         ",
"        .OO.OOOOOO.Oo.          ",
"        .Ooo.OOOO.ooo.          ",
"         .oooooooooo.           ",
"          .oooooooo.            ",
"           .ooXXoo.             ",
"      ..   .XX..XX.   ..        ",
"      .o.  ...oo...  .o.        ",
"      .oo...ooOOoo...oo.        ",
"      .oooOOOOOOOOOOooo.        ",
"       .oOOOOO..OOOOOo.         ",
"       .OOOO..oo..OOOO.         ",
"       .OOO.ooOOoo.OOO.         ",
"       .Oo.oOOOOOOo.oO.         ",
"      .OOo.OOO..OOO.oOO.        ",
"      .Oo..O..oo..O..oO.        ",
"     .OOo...ooOOoo...oOO.       ",
"    .OOo.  .OOOOOO.  .oOO.      ",
"   .OOOo.  .OO..OO.  .oOOO.     ",
"   .OOo.   ...oo...   .oOO.     ",
"   .Oo.    .ooOOoo.    .oO.     ",
"    ..     .OOOOOO.     ..      ",
"          .oOOOOOOo.            ",
"         .o.OOOOOO.o.           ",
"         .Oo.oooo.oO.           ",
"        .oOOo....oOOo.          ",
"        .OOo.    .oOO.          ",
"       .ooo.      .ooo.         ",
"       .ooo.      .ooo.         ",
"       .ooo.      .ooo.         ",
"       .....      .....         "
};
