/* XPM */
static char *_478de7b5f4d4049ee7b42bce70186eezNWPk5Elh4wIJqTh[] = {
/* columns rows colors chars-per-pixel */
"31 34 9 1 ",
"  c None",
". c black",
"X c #1C2A24",
"o c #223A30",
"O c #7D211D",
"+ c #3A5941",
"@ c #A52D27",
"# c #65845C",
"$ c #ACC2C3",
/* pixels */
"                               ",
"      ..  ........  ..         ",
"      .#..########..#.         ",
"      .o+######+++++o.         ",
"       .o+#++++++#+o.          ",
"       .o+@+#++#+@oo.          ",
"        .oOo@+o@oOo.           ",
"         .ooOooOoo.            ",
"          .oooooo.             ",
"     ..   .XooooX.   ..        ",
"     .o.  .$$..$$.  .o.        ",
"     .oo...$.oo.$...oo.        ",
"     .ooo+o.o++o.o+ooo.        ",
"      .o+++o++++o+++o.         ",
"      .++++++++++++++.         ",
"      .++++++++++++++.         ",
"      .+o.++++++++.o+.         ",
"     .++o.o++++++o.o++.        ",
"     .+o..o++++++o..o+.        ",
"    .++o..ooo++ooo..o++.       ",
"   .++o.  ...++...  .o++.      ",
"  .+++o.  .oo++oo.  .o+++.     ",
"  .++o.   .++++++.   .o++.     ",
"  .+o.    .oo++oo.    .o+.     ",
"   ..     .++++++.     ..      ",
"         .ooo++ooo.            ",
"        .o++++++++o.           ",
"        .+++oooo+++.           ",
"       .o++o....o++o.          ",
"       .++o.    .o++.          ",
"      .ooo.      .ooo.         ",
"      .ooo.      .ooo.         ",
"      .ooo.      .ooo.         ",
"      .....      .....         "
};
