/* XPM */
static char *a329453cf4334a18b16eb288bd659105DZRxE5crbr7KxzS0[] = {
/* columns rows colors chars-per-pixel */
"32 32 30 1 ",
"  c None",
". c #006108",
"X c #39335E",
"o c #444A4B",
"O c #7A6843",
"+ c #5D736B",
"@ c #606060",
"# c #616262",
"$ c gray47",
"% c #74874C",
"& c #71857F",
"* c #9DBE65",
"= c #CA9E73",
"- c #4B4790",
"; c #5D71CE",
": c #008291",
"> c #00A690",
", c #79A4FF",
"< c #808080",
"1 c #959595",
"2 c gray66",
"3 c gray73",
"4 c #DDBD9C",
"5 c #BEE495",
"6 c #EEDAB3",
"7 c gainsboro",
"8 c #E0F5CF",
"9 c #FDF0C5",
"0 c #FFEBE1",
"q c white",
/* pixels */
"                                ",
"            %%%%%%%             ",
"          %%*******%%           ",
"        %%*585555585*%%         ",
"       %*5585555555855*%        ",
"      %*558885555588855*%       ",
"     %*55558888888885555*%      ",
"     %55555555555555*5*55%      ",
"    %*555555*555*55*55**5*%     ",
"    %*555555*555*55*5*4*5*%     ",
"    %*5*555*555**5*6*66***%     ",
"    %*5*5OO*555*9*99666O*%      ",
"    %***O99=O5*99999966O%       ",
"    %***O6496O599999996O        ",
"    %***5O6=96599:::996O        ",
"     %****O6=9599q.0994O        ",
"     %*****O46999q>>96=O        ",
"      %*****4469999964O         ",
"       %***%=4466644=O          ",
"        %%*%OOOOOOOOO           ",
"          %$3;,,;;34O           ",
"          $3q7;,,,;3o           ",
"          $7qq-,,,,-X           ",
"          $7qq$,,,,;X           ",
"          $7q7$;,,;-X           ",
"          o699o----@o           ",
"          o499o221@o            ",
"           ooo<22<o             ",
"            o@<1<@o             ",
"            o@+&+o              ",
"            o@+&&o              ",
"             oooo               "
};
