/* XPM */
static char *a2ccdef063b64240aa8ae0388e5ba297[] = {
/* columns rows colors chars-per-pixel */
"31 31 28 1 ",
"  c None",
". c #006108",
"X c #39335E",
"o c #444A4B",
"O c #7A6843",
"+ c #5D736B",
"@ c #606060",
"# c #616262",
"$ c gray47",
"% c #74874C",
"& c #71857F",
"* c #9DBE65",
"= c #CA9E73",
"- c #4B4790",
"; c #5D71CE",
": c #008291",
"> c #00A690",
", c #79A4FF",
"< c #808080",
"1 c gray73",
"2 c #DDBD9C",
"3 c #BEE495",
"4 c #EEDAB3",
"5 c gainsboro",
"6 c #E0F5CF",
"7 c #FDF0C5",
"8 c #FFEBE1",
"9 c white",
/* pixels */
"                               ",
"            %%%%%%%            ",
"          %%*******%%          ",
"        %%*363333363*%%        ",
"       %*3363333333633*%       ",
"      %*336663333366633*%      ",
"     %*33336666666663333*%     ",
"     %33333333333333*3*33%     ",
"    %*333333*333*33*33**3*%    ",
"    %*333333*333*33*3*2*3*%    ",
"    %*3*333*333**3*4*44***%    ",
"    %*3*3OO*333*7*77444O*%     ",
"    %***O77=O3*77777744O%      ",
"    %***O4274O377777774O       ",
"    %***3O4=74377:::774O       ",
"     %****O4=73779.8772O       ",
"     %*****O247779>>74=O       ",
"      %*****2247777742O        ",
"       %***%=2244422=O         ",
"        %%*%OOOOOOOOO          ",
"          %X;;,,;;12O          ",
"           $15;,,,;1o          ",
"           1599$,,,-X          ",
"           15999$,,;X          ",
"           $15977o;-X          ",
"           X$1477o-@o          ",
"           o@$242o@oo          ",
"           o@<ooooo@@o         ",
"          o+&&<@oo@@@o         ",
"          o+&&&o  ooo          ",
"           oooo                "
};
