/* XPM */
static char *_74df1c6f29949fca05b9dc8dfbf54f09GK6JpHxzwtJu20T[] = {
/* columns rows colors chars-per-pixel */
"32 61 6 1 ",
"  c None",
". c #45283C",
"X c #663931",
"o c #8F563B",
"O c #B37245",
"+ c #D9A066",
/* pixels */
"                                ",
"                                ",
"             oooooo             ",
"            oOO++OOo            ",
"           oOO+++OOOo           ",
"          oO+++O+OOOOo          ",
"         oO+++++O+OOOOo         ",
"         oO++++O+OOOOOo         ",
"        oO++++O+O+OOOooo        ",
"       oOO+O+++O+OOOOOooo       ",
"       oOOO+O+O+OOOOOOOoo       ",
"       oO+OO+OOOOOOOOoooo       ",
"      oO+++oOOOOOOOooooooo      ",
"      oOO+++oooooooOOOoooo      ",
"      oO+++OOOOOOOOOOOOooo      ",
"     oO++O+O+OO+++++++oOooo     ",
"    oOO+++OOOO+++++++oOoOooo    ",
"    oO+++++O+OOO+O+OoOoOooo     ",
"    oOOOO++OOOOOO+OoOoOoOoo     ",
"   oOOOOoOoOOOOOOOOOOOOOooo     ",
"   oO+OOOoOoOoOOOOOOOOOoOooo    ",
"   o+O+OOOoOoOoOoOOOOOOOooooo   ",
"   o++O+OOOoooooOoOOOOOOOOooo   ",
"   o+++O+OOOoooooOOOOOOOOOooo   ",
"   oO+++O+OOOOOOOoOOOOOOoOOooo  ",
"   ooO+++O+OOOOO+++++OOooOoooo  ",
"  ooooOoO+OOOOooooooooooOoOoooo ",
" oO++ooOoOoOOOOOoooooooOoOoOooo ",
" o+++ooooooOOOOOOOoooOOoOoOoooo ",
" o+++++OOOOOOOOOOOOOOOOOoOooooo ",
" ooO++O+OOOOOOOOOOOOOOOOOoOoooo ",
" ooOO++O+OO++++OOOOOOOOOoOooOoo ",
" oooOO++OO++++++OOOOOOOoOoooooo ",
"oooooOOOOOO+++OOOOOOOoooooooooo ",
"oooooooooOOOOOOOOOOOOOOOOOOOOooo",
"oooOOOOOOOOOOOOOOOOOOOOO+OOOOooo",
"oOO+OoOOOOOOOOOooooO++++OOOooooo",
"o++O+OoooOOOOoooooO++OOOOooooooo",
"o+++OOooooooooOOOOOOOOOOoooOOooo",
"o++++OOooooooooooooooooooOOOOOoo",
"oO+++++OooooooooooOOOOOO+O++OOoo",
"oOO+++++OOOOOOOOOOOOO+OO+++OOOoo",
" oOO+++OOOOO++++OOO++OO+OOOOoooo",
"  oooOO++OOOOOOOOOOOOOOOOOooooo ",
"   ooooOOOOOOOooOOOOOOOOoooooo  ",
"    oooooOOOOoooooooooooooooo   ",
"      oooooooooooooooooooooo    ",
"        oooooo......oo          ",
"         ooo........            ",
"           XXXX.X.X.            ",
"           XXXX.X.X.            ",
"           XXXXXX.X..           ",
"          X.XXXXX.X..           ",
"         X..XXXXX.X..X          ",
"            XX.XX.....X         ",
"           XXX.X....X           ",
"           X.........X          ",
"           X        ..          ",
"                                ",
"                                ",
"                                "
};
