/* XPM */
static char *c9a43ed3a1a94147cd79caa980df4e80T6BQ5CVrDRRKun19[] = {
/* columns rows colors chars-per-pixel */
"32 32 26 1 ",
"  c None",
". c #39335E",
"X c #444A4B",
"o c #7A6843",
"O c #5D736B",
"+ c #606060",
"@ c #616262",
"# c gray47",
"$ c #74874C",
"% c #71857F",
"& c #9DBE65",
"* c #CA9E73",
"= c #4B4790",
"- c #5D71CE",
"; c #79A4FF",
": c #808080",
"> c #959595",
", c gray66",
"< c gray73",
"1 c #DDBD9C",
"2 c #BEE495",
"3 c #EEDAB3",
"4 c gainsboro",
"5 c #E0F5CF",
"6 c #FDF0C5",
"7 c white",
/* pixels */
"                                ",
"            $$$$$$$             ",
"          $$&&&&&&&$$           ",
"        $$&222222222&$$         ",
"       $&2225222225222&$        ",
"      $&222522222225222&$       ",
"     $&22255222222255222&$      ",
"     $2222255222225522222$      ",
"    $&2&222255555552222&2&$     ",
"   oo&&22222222222222222&&oo    ",
"  o13*o22222222222222222o*31o   ",
"   o131&2&22222222222&2&131o    ",
"    o33&&&22222222222&&&33o     ",
"     o*&&&2&2&222&2&2&&&*o      ",
"      o&&&&&2&&2&&2&&&&&o       ",
"       $&&&&&&&&&&&&&&&$        ",
"        $&&&&&&&&&&&&&$         ",
"        #$&$&&&&&&&$&$#         ",
"       #<.$-$&$&$&$-$.<#        ",
"      #47=-==$-$-$==-=74#       ",
"     #<77-;;;;;;;;;;;-77<#      ",
"     #774=;;;;;;;;;;;=477#      ",
"    #<74<.;;;;;;;;;;;.<47<#     ",
"    o*4<#.-;;;;;;;;;-.#<4*o     ",
"    o66*oX.-;;;;;;;-.Xo*66o     ",
"    o63o X:.==---==.:X o36o     ",
"     oo  X:,:+++++:,:X  oo      ",
"         X+>>+XXX+>>+X          ",
"         X+::+X X+::+X          ",
"          XO%+X X+%OX           ",
"          X%%OX XO%%X           ",
"           XXX   XXX            "
};
