/* XPM */
static char *_ef58bd58b844b11f68a0a0d2dc7f333mglJweZLlpXRZnye[] = {
/* columns rows colors chars-per-pixel */
"48 48 14 1 ",
"  c None",
". c #0E1520",
"X c #1B1929",
"o c #1A1A2D",
"O c #171E35",
"+ c #212336",
"@ c #242538",
"# c #526822",
"$ c #2D2F49",
"% c #423D61",
"& c #879F38",
"* c #B5BF54",
"= c #CBD260",
"- c #D1D671",
/* pixels */
"    *&==&&=&=&=-&===*&==&&=&=&=-&===*&==&&=&    ",
"  =&*=*==*&*=*&=**=&*=*==*&*=*&=**=&*=*==*&*=*  ",
" &*=**&*=*=*&==*=&*=**&*=*=*&==*=&*=**&*=*=*&== ",
" ***&****&=&**=&&***&****&=&**=&&***&****&=&**& ",
"&&=***&=&**=&&*#&&=***&=&**=&&*#&&=***&=&**=&&*&",
"#&#*&*#&&#*&#*#.#&#*&*#&&#*&#*#.#&#*&*#&&#*&#*#*",
".#&.&#&#..&#.&.o.#&.&#&#..&#.&.o.#&.&#&#..&#.&*.",
" ..O&#..X&#.o#&.O..O&#...&#.o#&.O..O&#..X&#..#. ",
" ..&#.+++..++..+++.&#.+++..++..+++.&#.+++...#.. ",
" .o..o%o$%%+%%$o$o@..o%o$%%+%%$o$o@..o%o$%%+... ",
".ooooooooo$+%ooooooooooooo$+%ooooooooooooo$+%o..",
".o..O.OOOOO+$oOOOOOoOoOOOOO+$oOOOOOoOoOOOO.+..o.",
".o...++++++++++++++++++++++++++++++++++++++...o.",
".+.$+%%%$%o$o$$%%%$$+%%%$%o$o$$%%%$$+%%%$%o$o.+.",
" .+%...oooooooooooo%+%ooooooooooooo%+%oooooooo. ",
"...+OOOOOOooooOoooOO+$OOOOooooOoooOO+$OOOOoooo. ",
".o+...++OOOOoOOoOOOO+OOOOOOOoOOoOOOO+OOOOOOO... ",
".+..%$..+++++++++++++++++++++++++++++++++...+o..",
" .ooooooo%o$%%+$$%%$$%$%o%o$%%+$$%%$$%$%.%o..+..",
"...OOoOOooooo%+oooooooooooooo%+oooooooooooooo. .",
".++.++++OOOOOO+OOoOOOOoOOOOOOO+OOoOOOOoOOOOO... ",
".%o+%%$$+++++++++++++++++++++++++++++++++++.++..",
".O..$OOO$o%o$%$o$%%o+%%$$o%o$%$o$%%o+%%$$o%o$%..",
".....+++OOOooOOOOoO$+$OOOOOooOOOOoO$+$OOOOO..O..",
"..%$o%oo++++++++++++++++++++++++++++++++++..... ",
".ooooooo$%%+%%$o$o%%$o%o$%%+%%$o$o%%$o%o$%%+%.. ",
" ..O.OOOoo$+%ooooooooooooo$+%ooooooooooooo$+%o..",
" ...++++OOO+$oOOOOOoOoOOOOO+$oOOOOOoOoOOOO.+..o.",
" .$+%%%%+++++++++++++++++++++++++++++++++++...o.",
".+%...oo$%o$o$$%%%$$+%%%$%o$o$$%%%$$+%%%$%o$o.+.",
".O......ooooooooooo%+%ooooooooooooo%+%oooooooo. ",
"...+OOOOOOooooOoooOO+$OOOOooooOoooOO+$OOOOoooo. ",
".o+...++OOOOoOOoOOOO+OOOOOOOoOOoOOOO+OOOOOOO... ",
".+..%$..+++++++++++++++++++++++++++++++++...+o..",
" .ooooooo%o$%%+$$%%$$%$%o%o$%%+$$%%$$%$%.%o..+..",
"...OOoOOooooo%+oooooooooooooo%+oooooooooooooo. .",
".++.++++OOOOOO+OOoOOOOoOOOOOOO+OOoOOOOoOOOOO... ",
".%o+%%$$++++++.++++++++++++++++++++++++++++.++..",
".O..$OOO$o%o$%$o$%%o+%%$$o%o$%$o$%%o+%%$$o%o$%..",
".+++++++OOOooOOOOoO$+$OOOOOooOOOOoO$+$OOOOO..O. ",
".%%$o%oo+++++.+++++++++++++++.+++++++++++++++.. ",
" .oooooo$%%+.%$o$o%%$o%o$%%+.%$o$o%%$o%o$%%+.%. ",
" ...oOOOoo$+.ooooo.ooooooo$+.ooooo.ooooooo$+..o.",
".+..++..OOO..oOO.O...oOOOOO..oOO.O...oOOOOO..o..",
".o.+..++.++..+++.++..++..++..+++.++..++..++..+. ",
" ..o+o..+.o.o.$..%$.+..++.o.o.$..%$.+..++.o.o.. ",
"   ...  ...++o.  ..oo+o....++o.  ..oo+o....+..  ",
"         .....     ....  .....     ....  ...    "
};
