/* XPM */
static char *a65f51d1e782478b8a1923f66555866b8w19ymgIUnnIgttm[] = {
/* columns rows colors chars-per-pixel */
"32 32 9 1 ",
"  c None",
". c #110A03",
"X c #3E3030",
"o c #630D26",
"O c #6D5D5B",
"+ c #B52D1B",
"@ c #F07508",
"# c #B0A28D",
"$ c #EADFC2",
/* pixels */
" .............................. ",
".$$.$$$$$$$$.$$$$$$.$$$$$$$$.$$.",
".#O.$######O.$####O.$######O.$#.",
".#O.$######O.$####O.$######O.$#.",
".OO.OOOOOOOO.OOOOOO.OOOOOOOO.OO.",
"................................",
".$$$$.####.$$$$$$$$$$.####.$$$$.",
".$##O.#OOX.$########O.#OOX.$##O.",
".$##O.#OOX.$########O.#OOX.$##O.",
".OOOO.XXXX.OOOOOOOOOO.XXXX.OOOO.",
"................................",
".##.########.######.########.##.",
".OX.#XXXXXXX.#OOOOX.#XXXXXXX.#O.",
".OX..........#OOOOX..........#O.",
".OX.$$$$$$$$.#OOOOX.$$$$$$$$.#O.",
".XX.$#@@@@#O.XXXXXX.$#@@@@#O.XX.",
"....$#@++o#O........$#@++o#O....",
".##.OO@++oOO.######.OO@++oOO.##.",
".OX..........#OOOOX..........#O.",
".OX.#######X.#OOOOX.#######X.#O.",
".XX.XXXXXXXX.XXXXXX.XXXXXXXX.XX.",
"................................",
".$$$$.####.$$$$$$$$$$.####.$$$$.",
".$##O.#OOX.$########O.#OOX.$##O.",
".$##O.#OOX.$########O.#OOX.$##O.",
".OOOO.XXXX.OOOOOOOOOO.XXXX.OOOO.",
"................................",
".$$.$$$$$$$$.$$$$$$.$$$$$$$$.$$.",
".#O.$######O.$####O.$######O.$#.",
".#O.$######O.$####O.$######O.$#.",
".OO.OOOOOOOO.OOOOOO.OOOOOOOO.OO.",
" .............................. "
};
